/* XPM */
static char * green_xpm[] = {
"15 17 124 2",
"  	c None",
". 	c #3E4742",
"+ 	c #918B95",
"@ 	c #BDB8BF",
"# 	c #CCC8C9",
"$ 	c #BAB6B5",
"% 	c #8C8887",
"& 	c #4A4647",
"* 	c #354C32",
"= 	c #7C9B7B",
"- 	c #CED4D2",
"; 	c #E8EEEA",
"> 	c #E8F0E5",
", 	c #E3EBE0",
"' 	c #D1D8D0",
") 	c #898F8F",
"! 	c #535762",
"~ 	c #557C4D",
"{ 	c #7BAF71",
"] 	c #9DC38A",
"^ 	c #A4CA8D",
"/ 	c #AED594",
"( 	c #ACD392",
"_ 	c #80A478",
": 	c #4A6B4E",
"< 	c #3D5C3C",
"[ 	c #497D3F",
"} 	c #539442",
"| 	c #6AAE37",
"1 	c #6CB035",
"2 	c #6EB336",
"3 	c #65A835",
"4 	c #5A9A39",
"5 	c #448131",
"6 	c #2D6923",
"7 	c #327C31",
"8 	c #4A9224",
"9 	c #66A120",
"0 	c #65B32C",
"a 	c #6DB633",
"b 	c #77BA37",
"c 	c #79B931",
"d 	c #72B226",
"e 	c #60A524",
"f 	c #4B922A",
"g 	c #3B832F",
"h 	c #124616",
"i 	c #509C41",
"j 	c #63AF33",
"k 	c #72B52A",
"l 	c #7DC641",
"m 	c #87CE4E",
"n 	c #8BCD51",
"o 	c #8BCC4A",
"p 	c #82C63D",
"q 	c #6FB72F",
"r 	c #5DA92F",
"s 	c #509E31",
"t 	c #193F1A",
"u 	c #1B4F11",
"v 	c #59A938",
"w 	c #6DC032",
"x 	c #83CD38",
"y 	c #93D653",
"z 	c #A0E066",
"A 	c #A1E06D",
"B 	c #A3E36B",
"C 	c #98DE57",
"D 	c #83D140",
"E 	c #71C436",
"F 	c #5AB027",
"G 	c #254627",
"H 	c #63AE37",
"I 	c #7FD340",
"J 	c #93E34C",
"K 	c #A9E665",
"L 	c #B6F17B",
"M 	c #B9F488",
"N 	c #B5F583",
"O 	c #A1E864",
"P 	c #90DE4C",
"Q 	c #80D33B",
"R 	c #5BAF1B",
"S 	c #5D9A33",
"T 	c #89D24D",
"U 	c #9DEA5C",
"V 	c #BFF677",
"W 	c #C4FB86",
"X 	c #C9FF97",
"Y 	c #C6FF93",
"Z 	c #B5F779",
"` 	c #AAF26A",
" .	c #94DC54",
"..	c #5CA321",
"+.	c #52793A",
"@.	c #81B956",
"#.	c #B9F97F",
"$.	c #CDFF84",
"%.	c #C6FB85",
"&.	c #C8FF90",
"*.	c #CBFF90",
"=.	c #C7FF8A",
"-.	c #B9F480",
";.	c #84BA58",
">.	c #437221",
",.	c #5E8244",
"'.	c #93C562",
").	c #C4F67D",
"!.	c #CCFF88",
"~.	c #D2FF91",
"{.	c #C5FF82",
"].	c #BCF17B",
"^.	c #9FCC6D",
"/.	c #6C8B52",
"(.	c #49701D",
"_.	c #6E9E26",
":.	c #95C84F",
"<.	c #AEE566",
"[.	c #91C846",
"}.	c #72A32E",
"|.	c #517424",
"1.	c #464646",
"2.	c #3F3F3F",
"3.	c #444444",
"                              ",
"                              ",
"        . + @ # $ % &         ",
"      * = - ; > , ' ) !       ",
"      ~ { ] ^ / ( ] _ :       ",
"    < [ } | 1 2 1 3 4 5 6     ",
"    7 8 9 0 a b c d e f g     ",
"  h i j k l m n o p q r s t   ",
"  u v w x y z A B C D E F G   ",
"    H I J K L M N O P Q R     ",
"    S T U V W X Y Z `  ...    ",
"    +.@.#.$.%.&.*.=.-.;.>.    ",
"      ,.'.).!.~.{.].^./.      ",
"        (._.:.<.[.}.|.        ",
"            1.2.3.            ",
"                              ",
"                              "};
