/* XPM */
static char * network_wired_acquiringssssss_xpm[] = {
"48 48 4 1",
" 	c None",
".	c #D7D7D7",
"+	c #D8D8D8",
"@	c #D6D6D6",
"                                                ",
"                                                ",
"                                                ",
"                                                ",
"                                                ",
"                                                ",
"      ....................................      ",
"    ........................................    ",
"    ........................................    ",
"   ..........................................   ",
"   ..........................................   ",
"   ..........................................   ",
"   ......                              ......   ",
"   ......                              ......   ",
"   ......                              ......   ",
"                                                ",
"                                                ",
"                                                ",
"      +@...+         +@...+         +@...+      ",
"     ........       ........       ........     ",
"    ..........     ..........     ..........    ",
"   @...........   @...........   @...........   ",
"   ............   ............   ............   ",
"   ............   ............   ............   ",
"   ............   ............   ............   ",
"   @...........   @...........   @...........   ",
"   +...........   +...........   +...........   ",
"    .........+     .........+     .........+    ",
"     .......+       .......+       .......+     ",
"      ......         ......         ......      ",
"                                                ",
"                                                ",
"                                                ",
"   ............                  ............   ",
"   .............                .............   ",
"   ..............              ..............   ",
"    ........................................    ",
"    ........................................    ",
"      ....................................      ",
"             ......................             ",
"              ....................              ",
"               ..................               ",
"                                                ",
"                                                ",
"                                                ",
"                                                ",
"                                                ",
"                                                "};
