/* XPM */
static char * red_xpm[] = {
"15 17 123 2",
"  	c None",
". 	c #483C3C",
"+ 	c #8C8D88",
"@ 	c #BCC2BE",
"# 	c #CDCDCD",
"$ 	c #C7BDC5",
"% 	c #908C89",
"& 	c #44403D",
"* 	c #654C4F",
"= 	c #A48684",
"- 	c #DFCEC6",
"; 	c #EAE3D9",
"> 	c #F6ECEA",
", 	c #F2DFE3",
"' 	c #EACFC6",
") 	c #AC918A",
"! 	c #5E4741",
"~ 	c #442624",
"{ 	c #934D4D",
"] 	c #CC7975",
"^ 	c #D38D83",
"/ 	c #D9A194",
"( 	c #DFA5A1",
"_ 	c #DC9A9C",
": 	c #D88E85",
"< 	c #BD726D",
"[ 	c #82413F",
"} 	c #5F3330",
"| 	c #803633",
"1 	c #AE3336",
"2 	c #B92D2C",
"3 	c #CF4F46",
"4 	c #C15146",
"5 	c #C55551",
"6 	c #C24E51",
"7 	c #C44E4C",
"8 	c #A83435",
"9 	c #A74043",
"0 	c #702A2C",
"a 	c #9D3733",
"b 	c #BC2922",
"c 	c #C72E26",
"d 	c #C7493B",
"e 	c #C85E4E",
"f 	c #CA5647",
"g 	c #DB5144",
"h 	c #C94B3C",
"i 	c #BF402D",
"j 	c #B0261B",
"k 	c #B33334",
"l 	c #AD3C38",
"m 	c #C44234",
"n 	c #D24F3D",
"o 	c #DB6353",
"p 	c #DF7164",
"q 	c #E67265",
"r 	c #F07063",
"s 	c #E06659",
"t 	c #CA513E",
"u 	c #BF3B2C",
"v 	c #B83634",
"w 	c #8A0C17",
"x 	c #C04540",
"y 	c #D15A46",
"z 	c #E27056",
"A 	c #ED7E6B",
"B 	c #EF8075",
"C 	c #F38479",
"D 	c #F48476",
"E 	c #F18175",
"F 	c #DF6756",
"G 	c #DD5847",
"H 	c #C4403B",
"I 	c #741A1C",
"J 	c #902127",
"K 	c #BB443E",
"L 	c #E86958",
"M 	c #F77D68",
"N 	c #F68879",
"O 	c #FA9A8E",
"P 	c #FEA094",
"Q 	c #FE9E8E",
"R 	c #F38E82",
"S 	c #FB7D71",
"T 	c #FC685E",
"U 	c #C13C37",
"V 	c #7D2F2D",
"W 	c #A3423C",
"X 	c #F76E66",
"Y 	c #FF847A",
"Z 	c #F98D81",
"` 	c #F6A999",
" .	c #F8AC9C",
"..	c #FBA594",
"+.	c #F29A8E",
"@.	c #FF8E89",
"#.	c #FF6A68",
"$.	c #B23A39",
"%.	c #7C3F3A",
"&.	c #D15A56",
"*.	c #FF8D89",
"=.	c #FFAAA2",
"-.	c #FDB8A9",
";.	c #F8B3A3",
">.	c #FFB3A1",
",.	c #FCAA9E",
"'.	c #FF8A86",
").	c #D55554",
"!.	c #8B3D39",
"~.	c #914640",
"{.	c #D2746C",
"].	c #F59E95",
"^.	c #FBAEA4",
"/.	c #FFB7AA",
"(.	c #FFB0A0",
"_.	c #F7A398",
":.	c #CE746B",
"<.	c #945047",
"[.	c #994F46",
"}.	c #C46F6A",
"|.	c #E58880",
"1.	c #C66658",
"2.	c #A14B3E",
"                              ",
"                              ",
"        . + @ # $ % &         ",
"      * = - ; > , ' ) !       ",
"    ~ { ] ^ / ( _ : < [ }     ",
"    | 1 2 3 4 5 6 7 8 9 0     ",
"    a b c d e f g h i j k     ",
"    l m n o p q r s t u v     ",
"  w x y z A B C D E F G H I   ",
"  J K L M N O P Q R S T U V   ",
"    W X Y Z `  ...+.@.#.$.    ",
"    %.&.*.=.-.;.>.,.'.).!.    ",
"      ~.{.].^./.(._.:.<.      ",
"          [.}.|.1.2.          ",
"                              ",
"                              ",
"                              "};
