/* XPM */
static char * yellow_xpm[] = {
"15 17 132 2",
"  	c None",
". 	c #724A52",
"+ 	c #9E8588",
"@ 	c #D1C1C1",
"# 	c #D9CBCA",
"$ 	c #D5C1C2",
"% 	c #A9898E",
"& 	c #684048",
"* 	c #8A4F51",
"= 	c #B78B88",
"- 	c #E9D3C8",
"; 	c #F3ECDC",
"> 	c #F1EEDD",
", 	c #FEEEE1",
"' 	c #EAC9C2",
") 	c #C09390",
"! 	c #713F38",
"~ 	c #772927",
"{ 	c #AA673D",
"] 	c #D79C70",
"^ 	c #EFC392",
"/ 	c #E9C893",
"( 	c #E5C690",
"_ 	c #ECC894",
": 	c #E9BB8A",
"< 	c #D19D6E",
"[ 	c #BA6755",
"} 	c #7A382A",
"| 	c #A64741",
"1 	c #CF7F26",
"2 	c #D3832A",
"3 	c #DC8F35",
"4 	c #EBA246",
"5 	c #E59E42",
"6 	c #DB993B",
"7 	c #DD9C3E",
"8 	c #CC8D2E",
"9 	c #D46C51",
"0 	c #994634",
"a 	c #7D2A1A",
"b 	c #C97036",
"c 	c #D8880F",
"d 	c #E6971E",
"e 	c #E7A024",
"f 	c #EBA529",
"g 	c #F0AA2E",
"h 	c #F3AC2C",
"i 	c #F2A525",
"j 	c #E19211",
"k 	c #DF8F20",
"l 	c #D46629",
"m 	c #832A1A",
"n 	c #8B3A1F",
"o 	c #E08638",
"p 	c #E99A1B",
"q 	c #F2A82F",
"r 	c #F5B142",
"s 	c #FABD52",
"t 	c #F9BF53",
"u 	c #F6B946",
"v 	c #FBB73C",
"w 	c #F8B230",
"x 	c #E69718",
"y 	c #EC8236",
"z 	c #8B371D",
"A 	c #8B4018",
"B 	c #EC952B",
"C 	c #FFAF39",
"D 	c #FFBF4A",
"E 	c #FCC757",
"F 	c #FAD064",
"G 	c #FDD76A",
"H 	c #FFD767",
"I 	c #FFCF5A",
"J 	c #F5BA44",
"K 	c #F9AD1C",
"L 	c #FB9E3F",
"M 	c #8F451E",
"N 	c #955726",
"O 	c #F0A12A",
"P 	c #FBB243",
"Q 	c #FFC854",
"R 	c #FDD65D",
"S 	c #F7E366",
"T 	c #F6E86B",
"U 	c #FAE66D",
"V 	c #FFDD6B",
"W 	c #F9CD60",
"X 	c #FFC530",
"Y 	c #EB9D38",
"Z 	c #8F5726",
"` 	c #C98A21",
" .	c #FFC84A",
"..	c #FFD75A",
"+.	c #FCE76A",
"@.	c #FEF87E",
"#.	c #FDFD83",
"$.	c #FAF478",
"%.	c #FFED6D",
"&.	c #FEE362",
"*.	c #FFCD4A",
"=.	c #BF882D",
"-.	c #966D2D",
";.	c #DFBA35",
">.	c #FDE164",
",.	c #FFF888",
"'.	c #FEFC95",
").	c #FAFD92",
"!.	c #FFFF8A",
"~.	c #FFFE77",
"{.	c #F7E955",
"].	c #E3B760",
"^.	c #99793C",
"/.	c #9B812A",
"(.	c #D3C364",
"_.	c #FAF389",
":.	c #FDFF8D",
"<.	c #F9FE86",
"[.	c #FDFE86",
"}.	c #F9F27E",
"|.	c #DFD363",
"1.	c #91714A",
"2.	c #786930",
"3.	c #989629",
"4.	c #C8D03D",
"5.	c #E2EB50",
"6.	c #CECF50",
"7.	c #A19742",
"8.	c #76632B",
"9.	c #474747",
"0.	c #424242",
"a.	c #414141",
"                              ",
"                              ",
"        . + @ # $ % &         ",
"      * = - ; > , ' ) !       ",
"    ~ { ] ^ / ( _ : < [ }     ",
"    | 1 2 3 4 5 6 7 8 9 0     ",
"  a b c d e f g h i j k l m   ",
"  n o p q r s t u v w x y z   ",
"  A B C D E F G H I J K L M   ",
"  N O P Q R S T U V W X Y Z   ",
"    `  ...+.@.#.$.%.&.*.=.    ",
"    -.;.>.,.'.).!.~.{.].^.    ",
"      /.(._.:.<.[.}.|.1.      ",
"        2.3.4.5.6.7.8.        ",
"            9.0.a.            ",
"                              ",
"                              "};
